# xmcd
#
# Track frame offsets:
#	150
#	35345
#	60445
#	76420
#	97260
#	113310
#	138970
#	155395
#
# Disc length: 2478 seconds
#
# Revision: 3
# Processed by: cddbd v1.5.1PL2 Copyright (c) Steve Scherf et al.
# Submitted via: EasyCDDAExtractor 8.0.2.1
#
DISCID=5809ac08
DTITLE=Accept - Live Hammersmith Odeon 22-11-81
DYEAR=1981
DGENRE=Hard Rock
TTITLE0=Starlight - Thunder And Lightn
TTITLE1=Do It
TTITLE2=Down And Out
TTITLE3=Run If You Can
TTITLE4=Midnight Highway
TTITLE5=Free Me Now
TTITLE6=I'm A Rebel
TTITLE7=Burning
EXTD=
EXTT0=
EXTT1=
EXTT2=
EXTT3=
EXTT4=
EXTT5=
EXTT6=
EXTT7=
PLAYORDER=
